<mxfile host="app.diagrams.net" agent="Mozilla/5.0 (X11; Linux x86_64; rv:130.0) Gecko/20100101 Firefox/130.0" version="24.8.3">
  <diagram id="R2lEEEUBdFMjLlhIrx00" name="Page-1">
    <mxGraphModel dx="2284" dy="822" grid="1" gridSize="10" guides="1" tooltips="1" connect="1" arrows="1" fold="1" page="1" pageScale="1" pageWidth="850" pageHeight="1100" math="0" shadow="0" extFonts="Permanent Marker^https://fonts.googleapis.com/css?family=Permanent+Marker">
      <root>
        <mxCell id="0" />
        <mxCell id="1" parent="0" />
        <mxCell id="XlEA709OXP0pRuiOG8Hz-8" style="edgeStyle=orthogonalEdgeStyle;rounded=0;orthogonalLoop=1;jettySize=auto;html=1;endArrow=none;endFill=0;" parent="1" edge="1">
          <mxGeometry relative="1" as="geometry">
            <mxPoint x="300" y="420" as="targetPoint" />
            <mxPoint x="295" y="306" as="sourcePoint" />
            <Array as="points">
              <mxPoint x="295" y="364" />
              <mxPoint x="301" y="364" />
            </Array>
          </mxGeometry>
        </mxCell>
        <mxCell id="XlEA709OXP0pRuiOG8Hz-19" style="edgeStyle=orthogonalEdgeStyle;rounded=0;orthogonalLoop=1;jettySize=auto;html=1;entryX=0;entryY=0.75;entryDx=0;entryDy=0;endArrow=none;endFill=0;exitX=1;exitY=0.25;exitDx=0;exitDy=0;" parent="1" source="ZFJeMk2QCg17mMmXyyMh-5" target="XlEA709OXP0pRuiOG8Hz-17" edge="1">
          <mxGeometry relative="1" as="geometry">
            <mxPoint x="380" y="193" as="sourcePoint" />
          </mxGeometry>
        </mxCell>
        <mxCell id="XlEA709OXP0pRuiOG8Hz-9" value="&lt;div&gt;&amp;lt;&amp;lt;weak&amp;gt;&amp;gt;&lt;br&gt;&lt;/div&gt;&lt;div&gt;Report&lt;br&gt;&lt;/div&gt;" style="swimlane;childLayout=stackLayout;horizontal=1;startSize=50;horizontalStack=0;rounded=1;fontSize=14;fontStyle=0;strokeWidth=2;resizeParent=0;resizeLast=1;shadow=0;dashed=0;align=center;arcSize=4;whiteSpace=wrap;html=1;" parent="1" vertex="1">
          <mxGeometry x="210" y="420" width="160" height="120" as="geometry" />
        </mxCell>
        <mxCell id="XlEA709OXP0pRuiOG8Hz-10" value="&lt;br&gt;+mnozstvi : CO2,N2O,PFC&lt;br&gt;&lt;div&gt;+ datu zaniku&lt;/div&gt;&lt;div&gt;+ &amp;lt;&amp;lt;PK&amp;gt;&amp;gt;&lt;br&gt;&lt;/div&gt;&lt;div&gt;&lt;br&gt;&lt;/div&gt;" style="align=left;strokeColor=none;fillColor=none;spacingLeft=4;fontSize=12;verticalAlign=top;resizable=0;rotatable=0;part=1;html=1;" parent="XlEA709OXP0pRuiOG8Hz-9" vertex="1">
          <mxGeometry y="50" width="160" height="70" as="geometry" />
        </mxCell>
        <mxCell id="XlEA709OXP0pRuiOG8Hz-12" value="vykazovat" style="text;html=1;align=center;verticalAlign=middle;whiteSpace=wrap;rounded=0;" parent="1" vertex="1">
          <mxGeometry x="300" y="370" width="60" height="30" as="geometry" />
        </mxCell>
        <mxCell id="XlEA709OXP0pRuiOG8Hz-16" style="edgeStyle=orthogonalEdgeStyle;rounded=0;orthogonalLoop=1;jettySize=auto;html=1;endArrow=none;endFill=0;entryX=-0.007;entryY=0.083;entryDx=0;entryDy=0;entryPerimeter=0;" parent="1" source="XlEA709OXP0pRuiOG8Hz-13" target="ZFJeMk2QCg17mMmXyyMh-5" edge="1">
          <mxGeometry relative="1" as="geometry">
            <mxPoint x="210" y="170" as="targetPoint" />
          </mxGeometry>
        </mxCell>
        <mxCell id="XlEA709OXP0pRuiOG8Hz-13" value="obchod" style="swimlane;childLayout=stackLayout;horizontal=1;startSize=50;horizontalStack=0;rounded=1;fontSize=14;fontStyle=0;strokeWidth=2;resizeParent=0;resizeLast=1;shadow=0;dashed=0;align=center;arcSize=4;whiteSpace=wrap;html=1;" parent="1" vertex="1">
          <mxGeometry x="-40" y="20" width="160" height="150" as="geometry" />
        </mxCell>
        <mxCell id="XlEA709OXP0pRuiOG8Hz-14" value="&lt;div&gt;+&amp;lt;&amp;lt;PK&amp;gt;&amp;gt; PC&lt;/div&gt;&lt;div&gt;+ datum&lt;br&gt;&lt;/div&gt;+puvod EO&lt;br&gt;&lt;div&gt;+mnozstvi&lt;/div&gt;&lt;div&gt;+ prodejce&lt;/div&gt;&lt;div&gt;+ cena za kus&lt;br&gt;&lt;/div&gt;&lt;div&gt;&lt;br&gt;&lt;/div&gt;" style="align=left;strokeColor=none;fillColor=none;spacingLeft=4;fontSize=12;verticalAlign=top;resizable=0;rotatable=0;part=1;html=1;" parent="XlEA709OXP0pRuiOG8Hz-13" vertex="1">
          <mxGeometry y="50" width="160" height="100" as="geometry" />
        </mxCell>
        <mxCell id="XlEA709OXP0pRuiOG8Hz-17" value="nakup" style="swimlane;childLayout=stackLayout;horizontal=1;startSize=50;horizontalStack=0;rounded=1;fontSize=14;fontStyle=0;strokeWidth=2;resizeParent=0;resizeLast=1;shadow=0;dashed=0;align=center;arcSize=4;whiteSpace=wrap;html=1;" parent="1" vertex="1">
          <mxGeometry x="480" y="120" width="160" height="120" as="geometry" />
        </mxCell>
        <mxCell id="XlEA709OXP0pRuiOG8Hz-18" value="+&amp;lt;&amp;lt;PK&amp;gt;&amp;gt; UC&lt;br&gt;&lt;div&gt;+ datum&lt;/div&gt;&lt;div&gt;+ cena za kus&lt;br&gt;&lt;/div&gt;" style="align=left;strokeColor=none;fillColor=none;spacingLeft=4;fontSize=12;verticalAlign=top;resizable=0;rotatable=0;part=1;html=1;" parent="XlEA709OXP0pRuiOG8Hz-17" vertex="1">
          <mxGeometry y="50" width="160" height="70" as="geometry" />
        </mxCell>
        <mxCell id="XlEA709OXP0pRuiOG8Hz-20" value="kupuje" style="text;html=1;align=center;verticalAlign=middle;whiteSpace=wrap;rounded=0;" parent="1" vertex="1">
          <mxGeometry x="395" y="165" width="60" height="30" as="geometry" />
        </mxCell>
        <mxCell id="XlEA709OXP0pRuiOG8Hz-22" value="Aukce" style="swimlane;childLayout=stackLayout;horizontal=1;startSize=50;horizontalStack=0;rounded=1;fontSize=14;fontStyle=0;strokeWidth=2;resizeParent=0;resizeLast=1;shadow=0;dashed=0;align=center;arcSize=4;whiteSpace=wrap;html=1;" parent="1" vertex="1">
          <mxGeometry x="640" y="270" width="160" height="150" as="geometry" />
        </mxCell>
        <mxCell id="XlEA709OXP0pRuiOG8Hz-23" value="+&amp;lt;&amp;lt;PK&amp;gt;&amp;gt; Datum&lt;br&gt;&lt;div&gt;+cas zacatku &lt;br&gt;&lt;/div&gt;&lt;div&gt;+ cas konce&lt;br&gt;&lt;/div&gt;&lt;div&gt;+pocet EO&lt;/div&gt;&lt;div&gt;+ prodanych&lt;/div&gt;&lt;div&gt;+ kdo kollik koupil&lt;br&gt;&lt;/div&gt;" style="align=left;strokeColor=none;fillColor=none;spacingLeft=4;fontSize=12;verticalAlign=top;resizable=0;rotatable=0;part=1;html=1;" parent="XlEA709OXP0pRuiOG8Hz-22" vertex="1">
          <mxGeometry y="50" width="160" height="100" as="geometry" />
        </mxCell>
        <mxCell id="XlEA709OXP0pRuiOG8Hz-24" style="edgeStyle=orthogonalEdgeStyle;rounded=0;orthogonalLoop=1;jettySize=auto;html=1;entryX=0.55;entryY=-0.027;entryDx=0;entryDy=0;entryPerimeter=0;endArrow=none;endFill=0;" parent="1" source="XlEA709OXP0pRuiOG8Hz-17" target="XlEA709OXP0pRuiOG8Hz-22" edge="1">
          <mxGeometry relative="1" as="geometry">
            <Array as="points">
              <mxPoint x="660" y="170" />
              <mxPoint x="660" y="250" />
              <mxPoint x="728" y="250" />
            </Array>
          </mxGeometry>
        </mxCell>
        <mxCell id="XlEA709OXP0pRuiOG8Hz-25" value="umoznuji" style="text;html=1;align=center;verticalAlign=middle;whiteSpace=wrap;rounded=0;" parent="1" vertex="1">
          <mxGeometry x="670" y="200" width="60" height="30" as="geometry" />
        </mxCell>
        <mxCell id="XlEA709OXP0pRuiOG8Hz-28" style="edgeStyle=orthogonalEdgeStyle;rounded=0;orthogonalLoop=1;jettySize=auto;html=1;endArrow=none;endFill=0;" parent="1" source="XlEA709OXP0pRuiOG8Hz-26" target="XlEA709OXP0pRuiOG8Hz-23" edge="1">
          <mxGeometry relative="1" as="geometry" />
        </mxCell>
        <mxCell id="XlEA709OXP0pRuiOG8Hz-26" value="Kralostvi" style="swimlane;childLayout=stackLayout;horizontal=1;startSize=50;horizontalStack=0;rounded=1;fontSize=14;fontStyle=0;strokeWidth=2;resizeParent=0;resizeLast=1;shadow=0;dashed=0;align=center;arcSize=4;whiteSpace=wrap;html=1;" parent="1" vertex="1">
          <mxGeometry x="630" y="560" width="160" height="120" as="geometry" />
        </mxCell>
        <mxCell id="XlEA709OXP0pRuiOG8Hz-27" value="+pocet kralostvi&lt;br&gt;+rozloha&lt;br&gt;+&amp;lt;&amp;lt;PK&amp;gt;&amp;gt; UC" style="align=left;strokeColor=none;fillColor=none;spacingLeft=4;fontSize=12;verticalAlign=top;resizable=0;rotatable=0;part=1;html=1;" parent="XlEA709OXP0pRuiOG8Hz-26" vertex="1">
          <mxGeometry y="50" width="160" height="70" as="geometry" />
        </mxCell>
        <mxCell id="XlEA709OXP0pRuiOG8Hz-29" value="poradaji" style="text;html=1;align=center;verticalAlign=middle;whiteSpace=wrap;rounded=0;" parent="1" vertex="1">
          <mxGeometry x="730" y="465" width="60" height="30" as="geometry" />
        </mxCell>
        <mxCell id="npAtI3-XyLJE93QcGi9i-5" style="edgeStyle=orthogonalEdgeStyle;rounded=0;orthogonalLoop=1;jettySize=auto;html=1;entryX=0;entryY=0.25;entryDx=0;entryDy=0;endArrow=none;endFill=0;" parent="1" source="npAtI3-XyLJE93QcGi9i-2" target="XlEA709OXP0pRuiOG8Hz-27" edge="1">
          <mxGeometry relative="1" as="geometry" />
        </mxCell>
        <mxCell id="npAtI3-XyLJE93QcGi9i-2" value="EO" style="swimlane;childLayout=stackLayout;horizontal=1;startSize=50;horizontalStack=0;rounded=1;fontSize=14;fontStyle=0;strokeWidth=2;resizeParent=0;resizeLast=1;shadow=0;dashed=0;align=center;arcSize=4;whiteSpace=wrap;html=1;" parent="1" vertex="1">
          <mxGeometry x="320" y="670" width="160" height="120" as="geometry" />
        </mxCell>
        <mxCell id="npAtI3-XyLJE93QcGi9i-3" value="&lt;div&gt;&lt;br&gt;&lt;/div&gt;&lt;div&gt;&amp;lt;&amp;lt;PK&amp;gt;&amp;gt; rok vyuzitelnosti&lt;br&gt;&lt;/div&gt;&lt;div&gt;&lt;br&gt;&lt;/div&gt;" style="align=left;strokeColor=none;fillColor=none;spacingLeft=4;fontSize=12;verticalAlign=top;resizable=0;rotatable=0;part=1;html=1;" parent="npAtI3-XyLJE93QcGi9i-2" vertex="1">
          <mxGeometry y="50" width="160" height="70" as="geometry" />
        </mxCell>
        <mxCell id="npAtI3-XyLJE93QcGi9i-4" style="edgeStyle=orthogonalEdgeStyle;rounded=0;orthogonalLoop=1;jettySize=auto;html=1;endArrow=none;endFill=0;" parent="1" source="XlEA709OXP0pRuiOG8Hz-18" target="npAtI3-XyLJE93QcGi9i-2" edge="1">
          <mxGeometry relative="1" as="geometry" />
        </mxCell>
        <mxCell id="npAtI3-XyLJE93QcGi9i-7" style="edgeStyle=orthogonalEdgeStyle;rounded=0;orthogonalLoop=1;jettySize=auto;html=1;entryX=0;entryY=0.5;entryDx=0;entryDy=0;endArrow=none;endFill=0;" parent="1" source="XlEA709OXP0pRuiOG8Hz-14" target="npAtI3-XyLJE93QcGi9i-2" edge="1">
          <mxGeometry relative="1" as="geometry">
            <Array as="points">
              <mxPoint x="50" y="730" />
            </Array>
          </mxGeometry>
        </mxCell>
        <mxCell id="npAtI3-XyLJE93QcGi9i-8" value="&lt;div&gt;prideleny&lt;/div&gt;&lt;div&gt;&lt;br&gt;&lt;/div&gt;" style="text;html=1;align=center;verticalAlign=middle;whiteSpace=wrap;rounded=0;" parent="1" vertex="1">
          <mxGeometry x="530" y="605" width="60" height="30" as="geometry" />
        </mxCell>
        <mxCell id="npAtI3-XyLJE93QcGi9i-10" style="edgeStyle=orthogonalEdgeStyle;rounded=0;orthogonalLoop=1;jettySize=auto;html=1;entryX=0;entryY=0;entryDx=0;entryDy=0;endArrow=none;endFill=0;" parent="1" source="XlEA709OXP0pRuiOG8Hz-10" target="npAtI3-XyLJE93QcGi9i-2" edge="1">
          <mxGeometry relative="1" as="geometry" />
        </mxCell>
        <mxCell id="npAtI3-XyLJE93QcGi9i-11" value="pokryvaji" style="text;html=1;align=center;verticalAlign=middle;whiteSpace=wrap;rounded=0;" parent="1" vertex="1">
          <mxGeometry x="290" y="575" width="60" height="30" as="geometry" />
        </mxCell>
        <mxCell id="npAtI3-XyLJE93QcGi9i-12" value="soucasti" style="text;html=1;align=center;verticalAlign=middle;whiteSpace=wrap;rounded=0;" parent="1" vertex="1">
          <mxGeometry x="450" y="430" width="60" height="30" as="geometry" />
        </mxCell>
        <mxCell id="npAtI3-XyLJE93QcGi9i-13" value="&lt;div&gt;soucasti&lt;/div&gt;&lt;div&gt;&lt;br&gt;&lt;/div&gt;" style="text;html=1;align=center;verticalAlign=middle;whiteSpace=wrap;rounded=0;" parent="1" vertex="1">
          <mxGeometry x="50" y="610" width="60" height="30" as="geometry" />
        </mxCell>
        <mxCell id="v5OQZRPMpmT7YyVa2MIJ-1" value="1..*" style="text;html=1;align=center;verticalAlign=middle;whiteSpace=wrap;rounded=0;" parent="1" vertex="1">
          <mxGeometry x="720" y="420" width="60" height="30" as="geometry" />
        </mxCell>
        <mxCell id="v5OQZRPMpmT7YyVa2MIJ-2" value="1" style="text;html=1;align=center;verticalAlign=middle;whiteSpace=wrap;rounded=0;" parent="1" vertex="1">
          <mxGeometry x="700" y="530" width="60" height="30" as="geometry" />
        </mxCell>
        <mxCell id="v5OQZRPMpmT7YyVa2MIJ-3" value="1" style="text;html=1;align=center;verticalAlign=middle;whiteSpace=wrap;rounded=0;" parent="1" vertex="1">
          <mxGeometry x="580" y="630" width="60" height="30" as="geometry" />
        </mxCell>
        <mxCell id="v5OQZRPMpmT7YyVa2MIJ-4" value="0...*" style="text;html=1;align=center;verticalAlign=middle;whiteSpace=wrap;rounded=0;" parent="1" vertex="1">
          <mxGeometry x="480" y="730" width="60" height="30" as="geometry" />
        </mxCell>
        <mxCell id="v5OQZRPMpmT7YyVa2MIJ-5" value="1" style="text;html=1;align=center;verticalAlign=middle;whiteSpace=wrap;rounded=0;" parent="1" vertex="1">
          <mxGeometry x="730" y="240" width="40" height="30" as="geometry" />
        </mxCell>
        <mxCell id="v5OQZRPMpmT7YyVa2MIJ-6" value="1...*" style="text;html=1;align=center;verticalAlign=middle;whiteSpace=wrap;rounded=0;" parent="1" vertex="1">
          <mxGeometry x="620" y="150" width="60" height="30" as="geometry" />
        </mxCell>
        <mxCell id="v5OQZRPMpmT7YyVa2MIJ-7" value="1" style="text;html=1;align=center;verticalAlign=middle;whiteSpace=wrap;rounded=0;" parent="1" vertex="1">
          <mxGeometry x="540" y="250" width="60" height="30" as="geometry" />
        </mxCell>
        <mxCell id="v5OQZRPMpmT7YyVa2MIJ-8" value="1...*" style="text;html=1;align=center;verticalAlign=middle;whiteSpace=wrap;rounded=0;" parent="1" vertex="1">
          <mxGeometry x="390" y="640" width="60" height="30" as="geometry" />
        </mxCell>
        <mxCell id="v5OQZRPMpmT7YyVa2MIJ-9" value="1" style="text;html=1;align=center;verticalAlign=middle;whiteSpace=wrap;rounded=0;" parent="1" vertex="1">
          <mxGeometry x="365" y="210" width="60" height="30" as="geometry" />
        </mxCell>
        <mxCell id="v5OQZRPMpmT7YyVa2MIJ-10" value="0...n" style="text;html=1;align=center;verticalAlign=middle;whiteSpace=wrap;rounded=0;" parent="1" vertex="1">
          <mxGeometry x="425" y="210" width="60" height="30" as="geometry" />
        </mxCell>
        <mxCell id="v5OQZRPMpmT7YyVa2MIJ-11" value="1..*" style="text;html=1;align=center;verticalAlign=middle;whiteSpace=wrap;rounded=0;" parent="1" vertex="1">
          <mxGeometry x="290" y="100" width="60" height="30" as="geometry" />
        </mxCell>
        <mxCell id="v5OQZRPMpmT7YyVa2MIJ-13" value="ucastni se" style="text;html=1;align=center;verticalAlign=middle;whiteSpace=wrap;rounded=0;" parent="1" vertex="1">
          <mxGeometry x="140" y="70" width="60" height="30" as="geometry" />
        </mxCell>
        <mxCell id="v5OQZRPMpmT7YyVa2MIJ-14" value="0..*" style="text;html=1;align=center;verticalAlign=middle;whiteSpace=wrap;rounded=0;" parent="1" vertex="1">
          <mxGeometry x="100" y="140" width="80" height="30" as="geometry" />
        </mxCell>
        <mxCell id="v5OQZRPMpmT7YyVa2MIJ-15" value="1" style="text;html=1;align=center;verticalAlign=middle;whiteSpace=wrap;rounded=0;" parent="1" vertex="1">
          <mxGeometry x="40" y="170" width="60" height="30" as="geometry" />
        </mxCell>
        <mxCell id="v5OQZRPMpmT7YyVa2MIJ-16" value="1...*" style="text;html=1;align=center;verticalAlign=middle;whiteSpace=wrap;rounded=0;" parent="1" vertex="1">
          <mxGeometry x="260" y="700" width="60" height="30" as="geometry" />
        </mxCell>
        <mxCell id="v5OQZRPMpmT7YyVa2MIJ-17" value="1" style="text;html=1;align=center;verticalAlign=middle;whiteSpace=wrap;rounded=0;" parent="1" vertex="1">
          <mxGeometry x="250" y="280" width="60" height="30" as="geometry" />
        </mxCell>
        <mxCell id="v5OQZRPMpmT7YyVa2MIJ-18" value="0..*" style="text;html=1;align=center;verticalAlign=middle;whiteSpace=wrap;rounded=0;" parent="1" vertex="1">
          <mxGeometry x="250" y="390" width="60" height="30" as="geometry" />
        </mxCell>
        <mxCell id="v5OQZRPMpmT7YyVa2MIJ-19" value="1...*" style="text;html=1;align=center;verticalAlign=middle;whiteSpace=wrap;rounded=0;" parent="1" vertex="1">
          <mxGeometry x="310" y="640" width="60" height="30" as="geometry" />
        </mxCell>
        <mxCell id="v5OQZRPMpmT7YyVa2MIJ-20" value="1" style="text;html=1;align=center;verticalAlign=middle;whiteSpace=wrap;rounded=0;" parent="1" vertex="1">
          <mxGeometry x="280" y="535" width="60" height="30" as="geometry" />
        </mxCell>
        <mxCell id="ZFJeMk2QCg17mMmXyyMh-6" style="edgeStyle=orthogonalEdgeStyle;rounded=0;orthogonalLoop=1;jettySize=auto;html=1;exitX=0.5;exitY=1;exitDx=0;exitDy=0;endArrow=none;endFill=0;" edge="1" parent="1" source="ZFJeMk2QCg17mMmXyyMh-4">
          <mxGeometry relative="1" as="geometry">
            <mxPoint x="295" y="310" as="targetPoint" />
          </mxGeometry>
        </mxCell>
        <mxCell id="ZFJeMk2QCg17mMmXyyMh-4" value="Podnik" style="swimlane;childLayout=stackLayout;horizontal=1;startSize=50;horizontalStack=0;rounded=1;fontSize=14;fontStyle=0;strokeWidth=2;resizeParent=0;resizeLast=1;shadow=0;dashed=0;align=center;arcSize=4;whiteSpace=wrap;html=1;" vertex="1" parent="1">
          <mxGeometry x="220" y="110" width="150" height="170" as="geometry" />
        </mxCell>
        <mxCell id="ZFJeMk2QCg17mMmXyyMh-5" value="&lt;div&gt;+&amp;lt;&amp;lt;PK&amp;gt;&amp;gt;&amp;nbsp; IČO&lt;/div&gt;&lt;div&gt;+typ&lt;/div&gt;&lt;div&gt;+nazev&lt;/div&gt;&lt;div&gt;+datum zalozeni&lt;/div&gt;&lt;div&gt;+ sidlo&lt;/div&gt;&lt;div&gt;+ sledovani&lt;/div&gt;&lt;div&gt;&lt;br&gt;&lt;/div&gt;" style="align=left;strokeColor=none;fillColor=none;spacingLeft=4;fontSize=12;verticalAlign=top;resizable=0;rotatable=0;part=1;html=1;" vertex="1" parent="ZFJeMk2QCg17mMmXyyMh-4">
          <mxGeometry y="50" width="150" height="120" as="geometry" />
        </mxCell>
        <mxCell id="ZFJeMk2QCg17mMmXyyMh-7" value="0...*" style="text;html=1;align=center;verticalAlign=middle;whiteSpace=wrap;rounded=0;" vertex="1" parent="1">
          <mxGeometry x="170" y="170" width="60" height="30" as="geometry" />
        </mxCell>
      </root>
    </mxGraphModel>
  </diagram>
</mxfile>
